<?xml version="1.0" encoding="UTF-8"?>
<svg id="Layer_1" xmlns="http://www.w3.org/2000/svg" version="1.1" xmlns:xlink="http://www.w3.org/1999/xlink" viewBox="0 0 31.9 32">
  <!-- Generator: Adobe Illustrator 29.3.1, SVG Export Plug-In . SVG Version: 2.1.0 Build 151)  -->
  <defs>
    <style>
      .st0 {
        fill: #fff;
      }

      .st1 {
        fill: #231f20;
      }
    </style>
  </defs>
  <g>
    <path class="st0" d="M26,22.3c0-.2,0-.3.1-.4.9-1.5,1.5-3.2,1.6-5.1.4-6.3-4.6-11.8-11.1-12.2S4.5,8.9,4.1,15.2s4.6,11.8,11.1,12.2,3.5-.2,5.1-.8.2,0,.4,0l4.2.3c.5,0,1-.4,1-.9l.2-3.7Z"/>
    <path class="st1" d="M16,28.4c-.3,0-.6,0-.8,0-7.1-.5-12.5-6.4-12.1-13.2.2-3.3,1.8-6.4,4.3-8.6,2.6-2.2,5.9-3.3,9.3-3,3.4.2,6.6,1.7,8.8,4.2,2.3,2.5,3.4,5.7,3.2,9-.1,2-.7,3.9-1.8,5.6l-.2,3.7c0,.5-.3,1-.7,1.3-.4.3-.9.5-1.4.5l-4.2-.3c-1.5.6-3,.8-4.6.8ZM15.9,5.6c-2.6,0-5.2.9-7.2,2.6-2.2,1.8-3.5,4.4-3.6,7.2-.4,5.7,4.2,10.7,10.2,11.1,1.6.1,3.2-.1,4.7-.7.3,0,.5-.1.8-.1l4.2.3.2-3.7c0-.3.1-.6.3-.9.9-1.4,1.4-3,1.5-4.6.2-2.8-.8-5.5-2.7-7.6-1.9-2.1-4.6-3.4-7.5-3.6-.2,0-.5,0-.7,0Z"/>
  </g>
  <path d="M15,20.6l-5-.3.2-3.8c0-1.4.5-2.5,1.1-3.3s1.7-1.4,3.1-2l.9,2.1c-.9.4-1.5.7-1.9,1.1s-.6.9-.6,1.4l2.4.2-.3,4.6ZM20.8,21l-5-.3.2-3.8c0-1.4.5-2.5,1.1-3.3s1.7-1.4,3.1-2l.9,2.1c-.9.4-1.5.7-1.9,1.1s-.6.9-.6,1.4l2.4.2-.3,4.6Z"/>
</svg>